<?xml version="1.0" standalone="no"?>
<!DOCTYPE svg PUBLIC "-//W3C//DTD SVG 20010904//EN"
 "http://www.w3.org/TR/2001/REC-SVG-20010904/DTD/svg10.dtd">
<svg version="1.0" xmlns="http://www.w3.org/2000/svg"
 width="700.000000pt" height="700.000000pt" viewBox="0 0 700.000000 700.000000"
 preserveAspectRatio="xMidYMid meet">
<metadata>
Created by potrace 1.14, written by Peter Selinger 2001-2017
</metadata>
<g transform="translate(0.000000,700.000000) scale(0.100000,-0.100000)"
fill="#000000" stroke="none">
<path d="M2744 6546 l-34 -34 0 -727 0 -727 -34 -34 c-62 -62 13 -99 -961 464
-16 9 -61 35 -100 58 -38 22 -97 56 -130 74 -33 18 -82 46 -110 61 -99 56
-128 40 -224 -127 -264 -455 -546 -944 -563 -974 -11 -19 -36 -62 -56 -94 -46
-77 -48 -125 -7 -165 17 -16 298 -182 625 -370 327 -189 605 -352 616 -363 47
-43 35 -125 -24 -162 -37 -23 -467 -271 -577 -333 -33 -19 -76 -43 -95 -55
-19 -11 -149 -86 -289 -166 -268 -154 -293 -174 -285 -235 2 -16 21 -60 42
-96 22 -36 51 -86 64 -111 31 -54 222 -384 287 -495 46 -78 249 -429 303 -523
34 -60 62 -82 105 -82 37 0 47 5 300 151 83 49 167 97 185 107 18 11 59 34 91
53 33 19 83 48 112 64 50 28 238 137 277 160 9 5 30 18 47 27 17 9 84 47 147
84 121 70 152 79 195 58 62 -31 59 6 59 -779 0 -782 -2 -758 57 -787 37 -18
1466 -19 1498 -1 11 6 29 21 40 33 20 22 20 38 21 751 0 706 1 729 20 750 26
29 76 49 104 42 13 -4 78 -38 145 -76 66 -38 138 -79 160 -92 22 -12 153 -87
290 -167 138 -80 270 -156 295 -170 25 -14 116 -66 203 -117 189 -110 215
-115 269 -52 19 22 44 59 56 83 13 24 27 50 32 58 21 31 295 508 323 560 16
30 35 62 42 70 6 8 15 22 18 30 4 8 18 33 31 55 14 22 31 51 39 65 7 14 52 93
100 176 87 152 97 181 75 228 -10 23 -119 93 -308 198 -25 14 -143 82 -263
152 -120 69 -222 126 -227 126 -6 0 -10 5 -10 10 0 6 -4 10 -9 10 -16 0 -415
232 -440 255 -35 34 -40 102 -9 136 12 14 106 73 208 131 102 59 273 157 380
219 177 102 326 188 420 241 154 88 240 141 252 155 7 9 13 37 12 62 0 39 -13
68 -92 201 -50 85 -103 178 -117 205 -15 28 -33 57 -41 66 -8 8 -14 18 -14 21
0 4 -27 52 -60 108 -33 56 -60 103 -60 105 0 1 -24 43 -54 92 -29 49 -65 111
-80 138 -97 175 -199 345 -217 361 -14 12 -36 19 -63 19 -34 -1 -75 -20 -236
-113 -107 -62 -202 -117 -210 -122 -17 -10 -178 -104 -225 -130 -16 -10 -86
-50 -155 -90 -311 -179 -437 -249 -463 -255 -36 -9 -81 10 -103 43 -16 25 -18
81 -18 747 -1 677 -2 723 -19 748 -10 16 -29 32 -43 37 -15 6 -316 10 -756 10
l-730 0 -34 -34z"/>
</g>
</svg>
